<svg id="SvgjsSvg1001" width="288" height="288" xmlns="http://www.w3.org/2000/svg" version="1.1" xmlns:xlink="http://www.w3.org/1999/xlink" xmlns:svgjs="http://svgjs.com/svgjs"><defs id="SvgjsDefs1002"></defs><g id="SvgjsG1008"><svg xmlns="http://www.w3.org/2000/svg" viewBox="0 0 36 36" width="288" height="288"><path fill="#66ccff" d="M24.988 30.08c-.498.282-3.794-.79-4.35-.656-.536.13-2.852 2.566-3.403 2.536-.57-.03-2.764-2.715-3.304-2.902-.522-.18-3.787.616-4.234.293-.464-.335-.858-3.778-1.211-4.228-.341-.434-3.52-1.529-3.72-2.042-.21-.533 1.321-3.643 1.267-4.212-.053-.55-2.134-3.189-2.026-3.73.112-.56 3.081-2.35 3.343-2.857.253-.49-.071-3.836.312-4.233.398-.411 3.863-.31 4.358-.597.478-.276 2.014-3.265 2.551-3.392.557-.13 3.417 1.827 3.988 1.854.551.026 3.46-1.658 3.98-1.474.54.19 1.887 3.384 2.353 3.716.45.32 3.807.475 4.145.911.35.452-.242 3.867-.03 4.398.206.512 2.947 2.458 2.995 3.008.05.57-2.294 3.122-2.402 3.684-.105.542 1.149 3.66.892 4.15-.265.505-3.618 1.385-4.012 1.8-.38.399-1.013 3.7-1.492 3.973z" class="colorfc0 svgShape"></path><path fill="#000000" d="M23.925 28.242c-.422.24-3.216-.67-3.687-.555-.455.11-2.419 2.175-2.886 2.15-.484-.026-2.344-2.302-2.802-2.46-.442-.154-3.21.522-3.59.248-.392-.284-.726-3.204-1.026-3.585-.29-.368-2.984-1.296-3.154-1.732-.177-.45 1.12-3.088 1.074-3.57-.044-.466-1.809-2.704-1.717-3.163.095-.475 2.612-1.992 2.834-2.422.214-.416-.06-3.253.265-3.59.337-.348 3.274-.263 3.694-.505.405-.234 1.708-2.769 2.163-2.876.472-.11 2.897 1.549 3.382 1.572.467.022 2.933-1.406 3.374-1.25.457.162 1.6 2.87 1.995 3.15.38.272 3.228.403 3.514.773.297.383-.205 3.279-.025 3.729.174.434 2.498 2.084 2.54 2.55.042.483-1.946 2.647-2.038 3.123-.088.46.974 3.104.757 3.518-.225.43-3.068 1.176-3.402 1.527-.323.338-.858 3.137-1.265 3.368z" class="colord31206 svgShape"></path><path fill="#66ccff" d="M9.297 14.602h16.91c1.752 0 3.163.084 3.163.187l1.085 1.872-1.788 2.562.703 2.398c.03.1-1.41.187-3.163.187H9.297c-1.753 0-3.164-.083-3.164-.187v-6.832c0-.104 1.411-.187 3.164-.187z" class="colorfc0 svgShape"></path><path fill="#000000" d="M8.527 1033.858c-.8 0-1.211.478-1.211 1.315 0 1.495 1.607 1.697 1.607 2.773 0 .374-.164.508-.426.508-.261 0-.425-.134-.425-.508v-.373h-.778v.32c0 .838.418 1.317 1.225 1.317.807 0 1.227-.48 1.227-1.316 0-1.495-1.608-1.696-1.608-2.772 0-.374.15-.516.412-.516s.41.142.41.516v.217h.778v-.166c0-.837-.412-1.315-1.211-1.315zm8.402 0c-.807 0-1.226.478-1.226 1.315v2.72c0 .838.419 1.317 1.226 1.317.807 0 1.225-.48 1.225-1.316v-.696h-.776v.748c0 .374-.166.508-.427.508-.262 0-.426-.134-.426-.508v-2.824c0-.374.164-.516.426-.516.261 0 .427.142.427.516v.56h.776v-.51c0-.836-.418-1.314-1.225-1.314zm-6.72.06v5.23h.822v-1.964h.388c.822 0 1.227-.456 1.227-1.293v-.68c0-.837-.405-1.293-1.227-1.293h-1.21zm2.818 0v5.23h2.242v-.745h-1.42v-1.534h1.127v-.748h-1.127v-1.457h1.42v-.746h-2.242zm5.635 0v5.23h.822v-5.23h-.822zm2.035 0-.836 5.23h.754l.142-.948h1.008l.143.949h.83l-.838-5.23h-1.203zm2.416 0v5.23h2.175v-.745h-1.353v-4.485h-.822zm-12.082.746h.388c.262 0 .405.12.405.495v.785c0 .373-.143.492-.405.492h-.388v-1.772zm10.226.18.397 2.647h-.793l.396-2.647z" font-family="Bebas Neue" font-size="7.474" font-weight="700" letter-spacing="0" word-spacing="0" style="line-height:125%;-inkscape-font-specification:'Bebas Neue Bold'" transform="translate(2.003 -1018.355)" class="colord31206 svgShape"></path><path fill="#66ccff" d="m9.807 1029.485.416 2.694h.63l.417-2.694h-.39l-.323 2.198-.323-2.198h-.427zm1.88 0-.43 2.694h.39l.072-.489h.52l.072.489h.427l-.43-2.694h-.62zm1.245 0v2.694h1.119v-.385h-.696v-2.309h-.423zm1.308 0v2.694h1.153v-.385h-.73v-.79h.581v-.384h-.582v-.75h.73v-.385H14.24zm1.408 0v2.694h.381v-1.952l.528 1.952h.433v-2.694h-.377v1.612l-.433-1.612h-.532zm1.526 0v.385h.443v2.309h.422v-2.309h.443v-.385h-1.308zm1.492 0v2.694h.422v-2.694h-.422zm.725 0v2.694h.38v-1.952l.528 1.952h.433v-2.694h-.377v1.612l-.433-1.612h-.531zm1.648 0v2.694h1.154v-.385h-.73v-.79h.58v-.384h-.58v-.75h.73v-.385H21.04zm-9.062.477.205 1.363h-.409l.204-1.363zm1.199 10.894c-.416 0-.643.247-.643.678v1.4c0 .431.227.678.643.678.415 0 .642-.247.642-.678v-1.4c0-.43-.227-.678-.642-.678zm.918.031v2.694h.424v-1.112h.545v-.384h-.545v-.813h.695v-.385h-1.12zm1.322 0v2.694h.424v-1.112h.545v-.384h-.545v-.813h.695v-.385h-1.119zm1.322 0v2.694h1.155v-.385h-.73v-.79h.58v-.384h-.58v-.75h.73v-.385h-1.155zm1.412 0v2.694h.424v-1.098h.147c.192 0 .277.093.277.344v.422c0 .219.016.262.04.332h.429a.799.799 0 0 1-.047-.328v-.414c0-.281-.068-.486-.28-.575.19-.088.278-.27.278-.547v-.21c0-.416-.19-.62-.629-.62h-.639zm-4.974.354c.134 0 .219.073.219.265v1.455c0 .193-.085.266-.22.266-.134 0-.218-.073-.218-.266v-1.455c0-.192.084-.265.219-.265zm5.398.03h.205c.15 0 .215.086.215.278v.266c0 .215-.096.283-.254.283h-.166v-.826z" font-family="Bebas Neue" font-size="3.847" font-weight="700" letter-spacing="0" word-spacing="0" style="line-height:125%;-inkscape-font-specification:'Bebas Neue Bold'" transform="translate(2.003 -1018.355)" class="colorfc0 svgShape"></path><path fill="#e9eded" style="line-height:normal;text-indent:0;text-align:start;text-decoration-line:none;text-decoration-style:solid;text-decoration-color:#000;text-transform:none;block-progression:tb;isolation:auto;mix-blend-mode:normal" d="M12.623 5.035a1.595 1.595 0 0 0-.283.043v.002c-.444.104-.573.288-.723.438a4.36 4.36 0 0 0-.406.478c-.26.346-.525.754-.783 1.158-.259.404-.51.803-.711 1.098-.09.131-.163.23-.22.303a5.922 5.922 0 0 1-.405.05c-.37.034-.86.061-1.354.092-.494.031-.993.067-1.433.127a4.71 4.71 0 0 0-.631.121c-.207.057-.423.081-.733.4-.316.328-.326.551-.37.759-.046.207-.067.409-.083.625-.031.431-.034.916-.033 1.396 0 .48.004.951-.006 1.309-.004.16-.014.282-.023.375a5.667 5.667 0 0 1-.31.261c-.294.23-.69.515-1.089.809-.399.294-.8.592-1.138.88-.17.145-.323.284-.465.444-.143.16-.313.298-.4.734-.09.447.023.64.097.838.074.199.164.379.268.569.206.38.466.788.726 1.191.26.403.519.798.703 1.104.083.136.144.245.186.328a6.01 6.01 0 0 1-.123.388c-.123.352-.3.807-.477 1.27-.177.463-.354.932-.482 1.357a4.677 4.677 0 0 0-.15.625c-.034.212-.104.418.058.832.166.424.367.526.537.653.17.127.344.23.533.334.38.207.82.41 1.256.61.437.197.867.39 1.188.548.142.07.252.127.332.174.03.094.067.227.107.394.087.362.184.84.285 1.325.102.485.206.974.328 1.402.062.214.125.411.211.607.087.196.14.408.5.668.37.267.594.245.805.26.212.015.413.01.629-.01.432-.03.91-.097 1.385-.166.474-.069.942-.14 1.297-.181.158-.018.282-.026.375-.03.076.063.179.153.302.272.269.257.608.608.955.96.348.354.702.709 1.036 1.003.167.146.327.278.505.396.179.118.338.267.782.291.454.025.63-.113.816-.215.186-.101.352-.218.526-.347.346-.259.714-.575 1.076-.889.361-.314.715-.628.992-.854.124-.1.223-.175.299-.228.098.012.232.034.4.066.365.071.841.182 1.324.291.484.11.973.217 1.412.284.22.033.425.057.64.06.213 0 .429.042.816-.178.395-.224.468-.437.57-.623.101-.186.178-.371.254-.574.151-.405.29-.87.424-1.33.134-.46.264-.914.375-1.254.049-.151.092-.268.127-.353.088-.043.213-.1.373-.162.345-.138.805-.302 1.271-.471.466-.17.936-.344 1.342-.526a4.69 4.69 0 0 0 .57-.294c.182-.114.383-.196.59-.59.211-.404.16-.62.145-.832a4.404 4.404 0 0 0-.098-.623 19.457 19.457 0 0 0-.361-1.348c-.136-.46-.273-.91-.364-1.256a5.648 5.648 0 0 1-.086-.365c.052-.084.129-.2.229-.34.216-.302.514-.69.814-1.084.3-.394.6-.796.844-1.168.122-.186.229-.363.32-.557.092-.193.217-.371.178-.814-.04-.454-.203-.608-.33-.777a4.39 4.39 0 0 0-.418-.471c-.306-.306-.67-.626-1.033-.94-.363-.313-.723-.62-.986-.86a5.698 5.698 0 0 1-.27-.26c-.002-.1 0-.237.008-.409.019-.37.062-.858.101-1.351.04-.494.077-.993.08-1.438a4.639 4.639 0 0 0-.03-.64c-.028-.213-.02-.432-.292-.784-.279-.36-.5-.4-.7-.474a4.387 4.387 0 0 0-.605-.17 19.271 19.271 0 0 0-1.376-.233c-.475-.068-.943-.13-1.295-.191a5.267 5.267 0 0 1-.372-.076 6.06 6.06 0 0 1-.21-.346c-.185-.322-.413-.755-.647-1.191a20.79 20.79 0 0 0-.709-1.252 4.675 4.675 0 0 0-.373-.524c-.138-.164-.249-.351-.668-.5-.429-.152-.637-.067-.844-.021a4.377 4.377 0 0 0-.601.183c-.406.15-.848.35-1.283.55-.436.199-.865.4-1.194.538a5.418 5.418 0 0 1-.351.135 5.752 5.752 0 0 1-.368-.176c-.33-.17-.754-.411-1.187-.652-.433-.241-.872-.482-1.275-.67a4.636 4.636 0 0 0-.596-.238c-.154-.048-.302-.114-.549-.102Zm-.055 1.018c.557-.131 3.418 1.826 3.989 1.853.55.027 3.46-1.657 3.98-1.472.54.19 1.886 3.383 2.352 3.714.45.32 3.808.476 4.146.913.35.451-.244 3.865-.031 4.396.205.512 2.947 2.458 2.996 3.008.05.57-2.294 3.124-2.402 3.685-.105.542 1.148 3.66.892 4.149-.265.506-3.619 1.387-4.013 1.8-.381.4-1.013 3.7-1.493 3.973-.497.283-3.794-.789-4.35-.654-.535.13-2.85 2.565-3.402 2.535-.57-.031-2.764-2.715-3.304-2.902-.522-.18-3.787.616-4.235.293-.463-.335-.857-3.78-1.21-4.229-.342-.433-3.52-1.527-3.721-2.04-.21-.533 1.322-3.645 1.267-4.214-.052-.549-2.133-3.187-2.025-3.728.112-.56 3.082-2.35 3.344-2.858.252-.49-.071-3.837.312-4.234.398-.411 3.862-.31 4.358-.596.477-.276 2.013-3.266 2.55-3.392Z" color="#000" font-family="sans-serif" font-weight="400" overflow="visible" transform="translate(2.003 -1.993)" class="colore9eded svgShape"></path></svg></g></svg>